HIERARCHY
ROOT Hips
{
	OFFSET 0.000000 71.427986 0.000000
	CHANNELS 6 Xposition Yposition Zposition Xrotation Yrotation Zrotation
	JOINT Pelvis
	{
		OFFSET 0.000000 0.000000 0.000000
		CHANNELS 3 Xrotation Yrotation Zrotation
		JOINT LeftUpLeg
		{
			OFFSET 6.797100 -2.508499 -1.318700
			CHANNELS 3 Xrotation Yrotation Zrotation
			JOINT LeftLeg
			{
				OFFSET 0.069008 -29.241863 0.690200
				CHANNELS 3 Xrotation Yrotation Zrotation
				JOINT LeftFoot
				{
					OFFSET -0.069008 -29.568123 -0.266800
					CHANNELS 3 Xrotation Yrotation Zrotation
					JOINT LeftToeBase
					{
						OFFSET 3.145500 -8.631000 16.059900
						CHANNELS 3 Xrotation Yrotation Zrotation
						End Site
						{
							OFFSET 0.000000 18.501587 0.000000
						}
					}
				}
			}
			JOINT Left_ShortSleeve
			{
				OFFSET 0.265923 -10.480953 1.153800
				CHANNELS 3 Xrotation Yrotation Zrotation
				End Site
				{
					OFFSET 1.725763 19.823879 0.000000
				}
			}
		}
		JOINT RightUpLeg
		{
			OFFSET -6.797100 -2.508499 -1.318700
			CHANNELS 3 Xrotation Yrotation Zrotation
			JOINT RightLeg
			{
				OFFSET -0.082453 -29.241932 0.688000
				CHANNELS 3 Xrotation Yrotation Zrotation
				JOINT RightFoot
				{
					OFFSET 0.082453 -29.568058 -0.264600
					CHANNELS 3 Xrotation Yrotation Zrotation
					JOINT RightToeBase
					{
						OFFSET -3.115300 -8.682800 16.113400
						CHANNELS 3 Xrotation Yrotation Zrotation
						End Site
						{
							OFFSET 0.000000 18.567114 0.000000
						}
					}
				}
			}
			JOINT Right_ShortSleeve
			{
				OFFSET -0.265923 -10.480953 1.153800
				CHANNELS 3 Xrotation Yrotation Zrotation
				End Site
				{
					OFFSET -1.725766 19.823910 0.000000
				}
			}
		}
	}
	JOINT Spine
	{
		OFFSET 0.000000 13.368103 0.470500
		CHANNELS 3 Xrotation Yrotation Zrotation
		JOINT Spine1
		{
			OFFSET 0.147000 13.837402 0.538800
			CHANNELS 3 Xrotation Yrotation Zrotation
			JOINT Spine2
			{
				OFFSET 0.168000 16.242897 -1.435500
				CHANNELS 3 Xrotation Yrotation Zrotation
				JOINT Neck
				{
					OFFSET 0.217200 18.631500 -1.679100
					CHANNELS 3 Xrotation Yrotation Zrotation
					JOINT Head
					{
						OFFSET 0.000000 6.599396 1.385900
						CHANNELS 3 Xrotation Yrotation Zrotation
						JOINT Hat
						{
							OFFSET -0.532200 27.220596 -10.096100
							CHANNELS 3 Xrotation Yrotation Zrotation
							End Site
							{
								OFFSET 0.000000 22.029861 0.000000
							}
						}
						JOINT HairD
						{
							OFFSET -10.777400 17.437393 -1.325900
							CHANNELS 3 Xrotation Yrotation Zrotation
							JOINT HairD1
							{
								OFFSET -3.290299 -11.051193 1.062200
								CHANNELS 3 Xrotation Yrotation Zrotation
								End Site
								{
									OFFSET 0.000000 11.579437 0.000000
								}
							}
						}
						JOINT HairB
						{
							OFFSET -10.777400 17.437393 1.467900
							CHANNELS 3 Xrotation Yrotation Zrotation
							JOINT HairB1
							{
								OFFSET -1.561200 -12.956299 3.590200
								CHANNELS 3 Xrotation Yrotation Zrotation
								End Site
								{
									OFFSET 0.000000 13.534866 0.000000
								}
							}
						}
						JOINT HairA
						{
							OFFSET 9.713100 17.437393 1.467900
							CHANNELS 3 Xrotation Yrotation Zrotation
							JOINT HairA1
							{
								OFFSET 1.561200 -12.956299 3.590200
								CHANNELS 3 Xrotation Yrotation Zrotation
								End Site
								{
									OFFSET 0.000000 13.534866 0.000000
								}
							}
						}
						JOINT HairC
						{
							OFFSET 9.713100 17.437393 -1.325900
							CHANNELS 3 Xrotation Yrotation Zrotation
							JOINT HairC1
							{
								OFFSET 3.290300 -11.051193 1.062200
								CHANNELS 3 Xrotation Yrotation Zrotation
								End Site
								{
									OFFSET 0.000000 11.579437 0.000000
								}
							}
						}
					}
				}
				JOINT LeftShoulder
				{
					OFFSET 5.101800 15.108002 -2.763700
					CHANNELS 3 Xrotation Yrotation Zrotation
					JOINT LeftArm
					{
						OFFSET 9.825497 2.506317 -1.597400
						CHANNELS 3 Xrotation Yrotation Zrotation
						JOINT LeftForeArm
						{
							OFFSET 21.966244 0.000000 0.000000
							CHANNELS 3 Xrotation Yrotation Zrotation
							JOINT LeftHand
							{
								OFFSET 33.879036 0.000000 0.000000
								CHANNELS 3 Xrotation Yrotation Zrotation
								JOINT LeftHandThumb1
								{
									OFFSET 6.715286 -2.359680 3.363841
									CHANNELS 3 Xrotation Yrotation Zrotation
									JOINT LeftHandThumb2
									{
										OFFSET 2.507072 -1.447464 1.447461
										CHANNELS 3 Xrotation Yrotation Zrotation
										JOINT LeftHandThumb3
										{
											OFFSET 2.898338 -1.673355 1.673357
											CHANNELS 3 Xrotation Yrotation Zrotation
											End Site
											{
												OFFSET -0.295959 3.727692 -0.131651
											}
										}
									}
								}
								JOINT LeftHandIndex1
								{
									OFFSET 14.190811 -0.254547 3.840278
									CHANNELS 3 Xrotation Yrotation Zrotation
									JOINT LeftHandIndex2
									{
										OFFSET 3.551727 0.000000 -0.000000
										CHANNELS 3 Xrotation Yrotation Zrotation
										JOINT LeftHandIndex3
										{
											OFFSET 2.894196 0.000000 0.000000
											CHANNELS 3 Xrotation Yrotation Zrotation
											End Site
											{
												OFFSET -1.000603 2.690872 0.366626
											}
										}
									}
								}
								JOINT LeftHandMiddle1
								{
									OFFSET 13.776489 0.000000 0.000000
									CHANNELS 3 Xrotation Yrotation Zrotation
									JOINT LeftHandMiddle2
									{
										OFFSET 3.438232 0.000000 0.000000
										CHANNELS 3 Xrotation Yrotation Zrotation
										JOINT LeftHandMiddle3
										{
											OFFSET 3.691551 0.000000 0.000000
											CHANNELS 3 Xrotation Yrotation Zrotation
											End Site
											{
												OFFSET -1.082298 3.499527 0.457670
											}
										}
									}
								}
								JOINT LeftHandRing1
								{
									OFFSET 13.966164 -0.268127 -3.067488
									CHANNELS 3 Xrotation Yrotation Zrotation
									JOINT LeftHandRing2
									{
										OFFSET 3.162567 0.000000 0.000000
										CHANNELS 3 Xrotation Yrotation Zrotation
										JOINT LeftHandRing3
										{
											OFFSET 3.324348 0.000000 0.000000
											CHANNELS 3 Xrotation Yrotation Zrotation
											End Site
											{
												OFFSET -0.861900 3.184998 0.405154
											}
										}
									}
								}
								JOINT LeftHandPinky1
								{
									OFFSET 13.131393 -0.168503 -5.746925
									CHANNELS 3 Xrotation Yrotation Zrotation
									JOINT LeftHandPinky2
									{
										OFFSET 2.849182 0.000000 0.000000
										CHANNELS 3 Xrotation Yrotation Zrotation
										JOINT LeftHandPinky3
										{
											OFFSET 2.805038 0.000000 0.000000
											CHANNELS 3 Xrotation Yrotation Zrotation
											End Site
											{
												OFFSET -0.882500 2.642609 0.325652
											}
										}
									}
								}
							}
							JOINT Left_Sleeve
							{
								OFFSET 6.592125 -0.646545 0.805568
								CHANNELS 3 Xrotation Yrotation Zrotation
								End Site
								{
									OFFSET -0.000179 20.275787 -0.000000
								}
							}
						}
					}
				}
				JOINT RightShoulder
				{
					OFFSET -5.731700 15.108002 -2.763700
					CHANNELS 3 Xrotation Yrotation Zrotation
					JOINT RightArm
					{
						OFFSET -9.825497 2.506317 -1.597400
						CHANNELS 3 Xrotation Yrotation Zrotation
						JOINT RightForeArm
						{
							OFFSET -21.966242 0.000000 0.000000
							CHANNELS 3 Xrotation Yrotation Zrotation
							JOINT RightHand
							{
								OFFSET -33.879032 0.000000 0.000000
								CHANNELS 3 Xrotation Yrotation Zrotation
								JOINT RightHandThumb1
								{
									OFFSET -6.715286 -2.359680 3.363841
									CHANNELS 3 Xrotation Yrotation Zrotation
									JOINT RightHandThumb2
									{
										OFFSET -2.507072 -1.447464 1.447461
										CHANNELS 3 Xrotation Yrotation Zrotation
										JOINT RightHandThumb3
										{
											OFFSET -2.898338 -1.673355 1.673357
											CHANNELS 3 Xrotation Yrotation Zrotation
											End Site
											{
												OFFSET 0.295959 3.727692 -0.131651
											}
										}
									}
								}
								JOINT RightHandIndex1
								{
									OFFSET -14.190811 -0.254547 3.840278
									CHANNELS 3 Xrotation Yrotation Zrotation
									JOINT RightHandIndex2
									{
										OFFSET -3.551727 0.000000 -0.000000
										CHANNELS 3 Xrotation Yrotation Zrotation
										JOINT RightHandIndex3
										{
											OFFSET -2.894196 0.000000 0.000000
											CHANNELS 3 Xrotation Yrotation Zrotation
											End Site
											{
												OFFSET 1.000603 2.690872 0.366626
											}
										}
									}
								}
								JOINT RightHandMiddle1
								{
									OFFSET -13.776489 0.000000 0.000000
									CHANNELS 3 Xrotation Yrotation Zrotation
									JOINT RightHandMiddle2
									{
										OFFSET -3.438232 0.000000 0.000000
										CHANNELS 3 Xrotation Yrotation Zrotation
										JOINT RightHandMiddle3
										{
											OFFSET -3.691551 0.000000 0.000000
											CHANNELS 3 Xrotation Yrotation Zrotation
											End Site
											{
												OFFSET 1.082298 3.499527 0.457670
											}
										}
									}
								}
								JOINT RightHandRing1
								{
									OFFSET -13.966164 -0.268127 -3.067488
									CHANNELS 3 Xrotation Yrotation Zrotation
									JOINT RightHandRing2
									{
										OFFSET -3.162567 0.000000 0.000000
										CHANNELS 3 Xrotation Yrotation Zrotation
										JOINT RightHandRing3
										{
											OFFSET -3.324348 0.000000 0.000000
											CHANNELS 3 Xrotation Yrotation Zrotation
											End Site
											{
												OFFSET 0.861900 3.184998 0.405154
											}
										}
									}
								}
								JOINT RightHandPinky1
								{
									OFFSET -13.131393 -0.168503 -5.746925
									CHANNELS 3 Xrotation Yrotation Zrotation
									JOINT RightHandPinky2
									{
										OFFSET -2.849182 0.000000 0.000000
										CHANNELS 3 Xrotation Yrotation Zrotation
										JOINT RightHandPinky3
										{
											OFFSET -2.805038 0.000000 0.000000
											CHANNELS 3 Xrotation Yrotation Zrotation
											End Site
											{
												OFFSET 0.882500 2.642609 0.325652
											}
										}
									}
								}
							}
							JOINT Right_Sleeve
							{
								OFFSET -6.592125 -0.646545 0.805568
								CHANNELS 3 Xrotation Yrotation Zrotation
								End Site
								{
									OFFSET 0.000179 20.275787 -0.000000
								}
							}
						}
					}
				}
				JOINT Bind_Right_JacketString
				{
					OFFSET -3.534800 11.969597 7.200700
					CHANNELS 3 Xrotation Yrotation Zrotation
					JOINT Bind_Right_JacketString1
					{
						OFFSET -0.319900 -6.102600 2.794100
						CHANNELS 3 Xrotation Yrotation Zrotation
						End Site
						{
							OFFSET 0.000000 6.719452 0.000000
						}
					}
				}
				JOINT Bind_Left_JacketString
				{
					OFFSET 2.904800 11.969597 7.200700
					CHANNELS 3 Xrotation Yrotation Zrotation
					JOINT Bind_Left_JacketString1
					{
						OFFSET 0.364800 -5.904503 3.186800
						CHANNELS 3 Xrotation Yrotation Zrotation
						End Site
						{
							OFFSET 0.000000 6.719513 0.000000
						}
					}
				}
				JOINT HairE
				{
					OFFSET 5.915200 17.612701 -11.592200
					CHANNELS 3 Xrotation Yrotation Zrotation
					JOINT HairE1
					{
						OFFSET 0.289200 -7.171898 -1.284500
						CHANNELS 3 Xrotation Yrotation Zrotation
						End Site
						{
							OFFSET 0.000000 7.291756 0.000000
						}
					}
				}
				JOINT HairF
				{
					OFFSET -0.864800 17.612701 -11.592200
					CHANNELS 3 Xrotation Yrotation Zrotation
					JOINT HairF1
					{
						OFFSET 0.000000 -14.087097 -2.127501
						CHANNELS 3 Xrotation Yrotation Zrotation
						End Site
						{
							OFFSET 0.000000 14.246841 0.000000
						}
					}
				}
				JOINT HairG
				{
					OFFSET -8.087700 17.612701 -11.592200
					CHANNELS 3 Xrotation Yrotation Zrotation
					JOINT HairG1
					{
						OFFSET -0.293600 -6.081398 -0.910100
						CHANNELS 3 Xrotation Yrotation Zrotation
						End Site
						{
							OFFSET 0.000000 6.156120 0.000000
						}
					}
				}
			}
		}
	}
	JOINT Pouch
	{
		OFFSET 0.000000 4.394501 10.847300
		CHANNELS 3 Xrotation Yrotation Zrotation
		End Site
		{
			OFFSET 0.000000 21.880577 0.000000
		}
	}
	JOINT Bag
	{
		OFFSET -13.229000 4.813004 -0.593300
		CHANNELS 3 Xrotation Yrotation Zrotation
		End Site
		{
			OFFSET 0.000000 21.880577 0.000000
		}
	}
	JOINT OccupyGuyFacialAnim_Joint
	{
		OFFSET 1.000000 -70.206398 -1.655000
		CHANNELS 3 Xrotation Yrotation Zrotation
		End Site
		{
			OFFSET 0.000000 21.880577 0.000000
		}
	}
}
MOTION
Frames: 4
Frame Time: 0.016667
-0.021719 28.147369 1.856422 72.664880 -1.759335 -1.184110 0.000001 0.000000 0.000000 9.375310 11.700850 0.898129 -2.133591 9.761087 1.854099 -39.966391 3.401569 -9.036334 -0.000000 -0.000001 0.000000 0.000001 -0.000000 0.000000 1.608808 -7.748768 -2.269993 12.887223 -1.953328 -1.218342 -38.432484 -3.693564 10.164761 -0.000000 0.000001 0.000001 -0.000000 0.000000 -0.000001 0.752151 -0.171248 0.406200 1.989893 -0.361037 0.703952 1.989558 -0.369636 0.705793 -9.204232 -0.704416 3.164577 0.129139 2.292100 -4.360970 0.000001 -0.000000 -0.000000 0.000001 -0.000000 -0.000000 0.000001 -0.000000 -0.000000 0.000001 -0.000000 -0.000000 0.000001 0.000000 -0.000000 0.000001 -0.000000 -0.000000 0.000001 0.000000 -0.000000 0.000001 -0.000000 -0.000000 0.000001 -0.000000 -0.000000 1.107191 -1.022676 0.366517 -53.198168 -52.390181 -60.733789 0.000000 -9.465319 0.000006 10.586328 -19.105163 86.700400 -1.335226 3.247025 11.085638 10.126211 -4.458106 7.651887 0.000000 0.000001 -0.000001 -4.827134 -13.400616 -17.576722 0.100496 1.081554 -10.616096 0.000002 0.000001 -0.000000 -3.573218 -14.167604 -13.089255 0.077337 0.949776 -9.309780 0.000000 0.000001 -0.000001 0.216148 -14.772466 -0.362639 0.436533 2.220935 -22.237332 -0.000000 0.000000 0.000000 -11.565751 -10.889316 18.851083 1.477792 3.890864 -41.581959 0.000002 0.000000 0.000003 -0.000001 -0.000000 -0.000000 1.721902 3.722436 14.170255 -57.852973 62.510417 58.216352 0.000000 10.622208 -0.000010 22.462824 6.417974 -82.516758 -0.201457 3.035662 -7.196448 8.074864 6.487021 -14.042694 -0.000000 -0.000001 0.000000 -3.768165 8.510233 18.931739 0.000005 0.000012 0.000002 -0.000001 0.000000 -0.000001 -0.238726 9.461322 1.884919 0.696239 -2.451497 31.705424 0.000001 0.000000 -0.000001 -0.642239 6.921368 4.616457 0.435033 -1.967188 24.937693 0.000001 0.000000 -0.000000 -8.414064 -1.159956 -7.808921 0.946334 -2.816006 37.143658 -0.000001 0.000001 -0.000001 0.000002 0.000001 -0.000000 -0.000002 -0.000000 0.000000 -0.000002 -0.000000 0.000000 -0.000002 -0.000000 -0.000000 -0.000002 -0.000000 -0.000000 -0.000002 -0.000000 0.000000 -0.000002 -0.000000 -0.000000 -0.000002 -0.000000 -0.000000 -0.000002 -0.000000 -0.000000 -0.000002 -0.000000 0.000000 -0.000002 -0.000000 -0.000000 0.000001 0.000000 0.000000 0.000001 0.000000 0.000000 0.000001 0.000000 0.000000 
-0.032628 28.178413 1.840736 72.691914 -1.765816 -1.187510 0.000000 -0.000000 -0.000000 9.284973 11.689793 0.909407 -2.085058 9.820111 1.861886 -40.020110 3.400258 -9.019763 0.000002 -0.000003 -0.000001 0.000000 0.000000 -0.000000 1.556114 -7.738239 -2.247083 12.882649 -1.997842 -1.210007 -38.444864 -3.683352 10.136673 -0.000002 -0.000000 0.000001 0.000002 0.000001 -0.000000 0.763669 -0.168715 0.402284 2.014334 -0.356035 0.696149 2.017246 -0.364457 0.698350 -9.222180 -0.707646 3.170100 0.081696 2.286395 -4.356596 -0.000001 -0.000000 -0.000000 -0.000001 -0.000000 -0.000000 -0.000001 -0.000000 0.000000 -0.000001 -0.000000 -0.000000 0.000001 -0.000000 -0.000000 -0.000001 -0.000000 -0.000000 0.000001 -0.000000 -0.000000 -0.000001 -0.000000 -0.000000 -0.000001 -0.000000 -0.000000 1.106199 -1.019218 0.444195 -53.325800 -52.446021 -60.786150 -0.000011 -9.373378 -0.000025 10.495906 -19.160180 86.594176 -1.335182 3.246639 11.085995 10.147841 -4.457506 7.634729 0.000000 -0.000002 -0.000000 -4.837807 -13.407068 -17.604555 0.100307 1.080579 -10.606295 0.000002 0.000000 0.000002 -3.580317 -14.174207 -13.107838 0.077276 0.949379 -9.306214 -0.000001 -0.000000 0.000001 0.214321 -14.770902 -0.368753 0.436218 2.220166 -22.229298 -0.000001 0.000000 0.000000 -11.556531 -10.896245 18.883820 1.482245 3.895872 -41.647703 0.000000 -0.000001 0.000001 -0.000003 0.000000 -0.000000 1.692442 3.818572 14.166781 -57.419099 62.383034 57.737700 0.000002 11.015446 0.000005 22.411394 6.229422 -82.455533 -0.201456 3.035651 -7.196450 8.074865 6.487030 -14.042696 0.000000 -0.000001 0.000001 -3.768101 8.510251 18.931751 0.000004 0.000021 0.000007 -0.000001 0.000000 -0.000001 -0.238726 9.461326 1.884920 0.696244 -2.451502 31.705431 0.000001 0.000000 -0.000002 -0.642240 6.921378 4.616448 0.435033 -1.967194 24.937702 0.000000 -0.000001 0.000001 -8.414060 -1.159939 -7.808918 0.946325 -2.816029 37.143655 0.000001 0.000002 -0.000001 0.000001 0.000001 -0.000001 -0.000000 0.000000 -0.000000 -0.000000 -0.000000 0.000000 -0.000000 0.000000 -0.000000 -0.000000 0.000000 -0.000000 -0.000000 0.000000 -0.000000 -0.000000 -0.000000 -0.000000 -0.000000 0.000000 -0.000000 -0.000000 0.000000 -0.000000 -0.000000 0.000000 -0.000000 -0.000000 -0.000000 -0.000000 0.000000 -0.000000 -0.000000 0.000000 -0.000000 -0.000000 0.000000 -0.000000 -0.000000 
-0.044960 28.213711 1.822861 72.721338 -1.764584 -1.190999 0.000000 0.000000 -0.000000 9.249551 11.671055 0.906224 -2.162076 9.880721 1.884567 -40.011310 3.389524 -8.999286 0.000004 -0.000003 -0.000001 -0.000001 -0.000001 -0.000000 1.489668 -7.720129 -2.221935 12.893363 -2.047789 -1.205477 -38.459275 -3.674204 10.110512 -0.000001 0.000001 0.000001 0.000000 0.000001 -0.000000 0.778872 -0.167211 0.396422 2.046995 -0.353059 0.686805 2.059591 -0.360989 0.690020 -9.236210 -0.710648 3.176450 0.030647 2.283026 -4.346891 -0.000000 0.000000 0.000000 -0.000000 0.000000 0.000000 -0.000000 0.000000 0.000000 -0.000000 0.000000 -0.000000 -0.000000 0.000000 0.000000 -0.000000 0.000000 -0.000000 -0.000000 0.000000 0.000000 -0.000000 0.000000 0.000000 -0.000000 0.000000 0.000000 1.109416 -1.047177 0.617680 -53.300218 -52.427245 -60.726119 0.000006 -9.495830 0.000006 10.330536 -19.116398 86.488452 -1.335063 3.245443 11.087061 10.172715 -4.455073 7.614903 0.000000 -0.000000 0.000001 -4.849300 -13.415397 -17.633332 0.101662 1.087820 -10.678348 0.000002 0.000002 -0.000003 -3.576263 -14.185626 -13.088194 0.077294 0.949509 -9.307374 -0.000001 0.000000 -0.000001 0.213938 -14.771011 -0.370080 0.436398 2.220585 -22.233871 -0.000000 0.000000 -0.000002 -11.537932 -10.909920 18.948260 1.491649 3.906395 -41.785861 0.000001 0.000000 0.000001 -0.000002 0.000001 0.000001 1.608452 4.068153 14.154881 -56.074771 61.951639 56.389209 -0.000007 12.166842 -0.000011 22.338103 5.692534 -82.256590 -0.201451 3.035665 -7.196450 8.074866 6.487040 -14.042691 0.000000 -0.000001 0.000000 -3.767908 8.510335 18.931768 -0.000003 0.000001 0.000004 -0.000001 0.000001 -0.000003 -0.238724 9.461317 1.884918 0.696248 -2.451498 31.705431 -0.000001 0.000000 -0.000002 -0.642236 6.921369 4.616437 0.435033 -1.967191 24.937711 -0.000000 0.000000 -0.000002 -8.414057 -1.159933 -7.808918 0.946331 -2.816037 37.143648 0.000001 0.000001 -0.000003 -0.000002 -0.000000 0.000002 0.000000 -0.000000 -0.000000 0.000000 -0.000000 -0.000000 0.000000 -0.000000 -0.000000 0.000000 -0.000000 -0.000000 0.000000 -0.000000 -0.000000 0.000000 -0.000000 -0.000000 0.000000 -0.000000 -0.000000 0.000000 -0.000000 -0.000000 0.000000 -0.000000 -0.000000 0.000000 -0.000000 -0.000000 0.000000 0.000000 -0.000000 0.000000 0.000000 -0.000000 0.000000 0.000000 -0.000000 
-0.058771 28.252842 1.802681 72.753898 -1.756676 -1.189744 -0.000001 -0.000000 -0.000000 9.169383 11.638624 0.904854 -2.170009 9.939990 1.920892 -40.034433 3.383744 -8.988607 -0.000002 -0.000002 -0.000001 -0.000000 -0.000001 -0.000000 1.405297 -7.695839 -2.200083 12.924470 -2.098060 -1.206308 -38.478793 -3.667005 10.087375 -0.000001 -0.000000 0.000001 -0.000001 -0.000001 -0.000001 0.796796 -0.167033 0.388057 2.085601 -0.352767 0.674647 2.114177 -0.359899 0.679518 -9.245072 -0.712870 3.181722 -0.016060 2.281405 -4.334584 -0.000000 0.000000 -0.000000 -0.000000 0.000000 -0.000000 -0.000000 0.000000 -0.000000 -0.000000 0.000000 -0.000000 -0.000000 0.000000 -0.000000 -0.000000 0.000000 -0.000000 -0.000000 0.000000 -0.000000 -0.000000 0.000000 -0.000000 -0.000000 0.000000 -0.000000 1.118096 -1.112104 0.871086 -53.079674 -52.340354 -60.509213 -0.000003 -9.849018 0.000010 10.082031 -18.967707 86.379435 -1.334856 3.243492 11.088826 10.184135 -4.450616 7.605699 0.000001 -0.000000 -0.000002 -4.864701 -13.431224 -17.667944 0.102159 1.090443 -10.704346 0.000000 0.000001 -0.000002 -3.587276 -14.183189 -13.124480 0.077384 0.950032 -9.312544 -0.000000 0.000000 0.000001 0.201506 -14.788816 -0.413978 0.436858 2.221734 -22.245890 0.000000 0.000000 0.000002 -11.535569 -10.898838 18.936816 1.498042 3.913524 -41.879530 0.000003 0.000001 -0.000000 -0.000001 0.000000 -0.000000 1.474309 4.460580 14.127445 -54.128050 61.266510 54.462624 -0.000008 13.832695 -0.000010 22.245089 4.915915 -81.969626 -0.201454 3.035661 -7.196447 8.074861 6.487029 -14.042690 -0.000000 -0.000001 0.000000 -3.767590 8.510455 18.931806 0.000001 0.000002 0.000002 0.000000 0.000001 0.000000 -0.238722 9.461323 1.884910 0.696235 -2.451497 31.705444 -0.000001 0.000000 -0.000001 -0.642235 6.921374 4.616421 0.435030 -1.967193 24.937717 0.000001 0.000000 -0.000001 -8.414067 -1.159942 -7.808917 0.946329 -2.816008 37.143648 -0.000002 0.000002 -0.000001 -0.000003 0.000001 -0.000000 0.000000 0.000000 -0.000000 0.000000 0.000000 0.000000 0.000000 0.000000 -0.000000 0.000000 0.000000 -0.000000 0.000000 0.000000 -0.000000 0.000000 0.000000 -0.000000 0.000000 0.000000 -0.000000 0.000000 0.000000 -0.000000 0.000000 0.000000 -0.000000 0.000000 0.000000 -0.000000 -0.000001 -0.000000 -0.000000 -0.000001 -0.000000 -0.000000 -0.000001 -0.000000 -0.000000 
